HIERARCHY
ROOT Hips
{
	OFFSET 0.000000 0.000000 0.000000
	CHANNELS 6 Xposition Yposition Zposition Xrotation Yrotation Zrotation
	JOINT Spine
	{
		OFFSET 0.000000 0.044490 0.066735
		CHANNELS 3 Xrotation Yrotation Zrotation
		JOINT Spine1
		{
			OFFSET 0.000000 0.015451 0.087628
			CHANNELS 3 Xrotation Yrotation Zrotation
			JOINT Spine2
			{
				OFFSET 0.000000 0.007755 0.088641
				CHANNELS 3 Xrotation Yrotation Zrotation
				JOINT Spine3
				{
					OFFSET 0.000000 0.000000 0.088980
					CHANNELS 3 Xrotation Yrotation Zrotation
					JOINT Neck
					{
						OFFSET 0.000000 -0.033367 0.233572
						CHANNELS 3 Xrotation Yrotation Zrotation
						JOINT Head
						{
							OFFSET 0.000000 -0.021245 0.120488
							CHANNELS 3 Xrotation Yrotation Zrotation
							End Site
							{
								OFFSET 0.000000 0.000000 0.000000
							}
						}
					}
					JOINT RightShoulder
					{
						OFFSET -0.026917 -0.044862 0.145355
						CHANNELS 3 Xrotation Yrotation Zrotation
						JOINT RightArm
						{
							OFFSET -0.133690 0.000000 0.000000
							CHANNELS 3 Xrotation Yrotation Zrotation
							JOINT RightForeArm
							{
								OFFSET -0.257725 0.000000 0.000000
								CHANNELS 3 Xrotation Yrotation Zrotation
								JOINT RightHand
								{
									OFFSET -0.216749 0.000000 0.000000
									CHANNELS 3 Xrotation Yrotation Zrotation
									JOINT RightHandEnd
									{
										OFFSET -0.062518 0.000000 0.000000
										CHANNELS 3 Xrotation Yrotation Zrotation
										End Site
										{
											OFFSET 0.000000 0.000000 0.000000
										}
									}
									JOINT RightHandThumb1
									{
										OFFSET -0.025007 -0.041679 -0.016672
										CHANNELS 3 Xrotation Yrotation Zrotation
										End Site
										{
											OFFSET 0.000000 0.000000 0.000000
										}
									}
								}
							}
						}
					}
					JOINT LeftShoulder
					{
						OFFSET 0.026917 -0.044862 0.145355
						CHANNELS 3 Xrotation Yrotation Zrotation
						JOINT LeftArm
						{
							OFFSET 0.133690 0.000000 0.000000
							CHANNELS 3 Xrotation Yrotation Zrotation
							JOINT LeftForeArm
							{
								OFFSET 0.257725 0.000000 0.000000
								CHANNELS 3 Xrotation Yrotation Zrotation
								JOINT LeftHand
								{
									OFFSET 0.216749 0.000000 0.000000
									CHANNELS 3 Xrotation Yrotation Zrotation
									JOINT LeftHandEnd
									{
										OFFSET 0.062518 0.000000 0.000000
										CHANNELS 3 Xrotation Yrotation Zrotation
										End Site
										{
											OFFSET 0.000000 0.000000 0.000000
										}
									}
									JOINT LeftHandThumb1
									{
										OFFSET 0.025007 -0.041679 -0.016672
										CHANNELS 3 Xrotation Yrotation Zrotation
										End Site
										{
											OFFSET 0.000000 0.000000 0.000000
										}
									}
								}
							}
						}
					}
				}
			}
		}
	}
	JOINT RightUpLeg
	{
		OFFSET -0.079855 0.000000 -0.023329
		CHANNELS 3 Xrotation Yrotation Zrotation
		JOINT RightLeg
		{
			OFFSET 0.000000 0.000000 -0.366572
			CHANNELS 3 Xrotation Yrotation Zrotation
			JOINT RightFoot
			{
				OFFSET 0.000000 0.000000 -0.363650
				CHANNELS 3 Xrotation Yrotation Zrotation
				JOINT RightToeBase
				{
					OFFSET 0.000000 -0.114715 -0.041753
					CHANNELS 3 Xrotation Yrotation Zrotation
					End Site
					{
						OFFSET 0.000000 0.000000 0.000000
					}
				}
			}
		}
	}
	JOINT LeftUpLeg
	{
		OFFSET 0.079855 0.000000 -0.023329
		CHANNELS 3 Xrotation Yrotation Zrotation
		JOINT LeftLeg
		{
			OFFSET 0.000000 0.000000 -0.366572
			CHANNELS 3 Xrotation Yrotation Zrotation
			JOINT LeftFoot
			{
				OFFSET 0.000000 0.000000 -0.363650
				CHANNELS 3 Xrotation Yrotation Zrotation
				JOINT LeftToeBase
				{
					OFFSET 0.000000 -0.114715 -0.041753
					CHANNELS 3 Xrotation Yrotation Zrotation
					End Site
					{
						OFFSET 0.000000 0.000000 0.000000
					}
				}
			}
		}
	}
}
MOTION
Frames: 15
Frame Time: 0.033333
0.306215 0.203157 0.804730 1.293400 -2.890000 -94.130900 -1.228800 -0.475500 0.071600 -0.948800 -0.601800 -0.073200 -0.150500 0.189900 -0.673500 0.280000 0.002700 -0.280900 -2.192400 0.570600 0.087800 3.688400 -1.350600 -0.139300 -1.413500 10.856500 4.670200 -7.562200 -4.425300 -4.185900 0.000000 0.000000 0.008800 3.388600 25.545300 -5.555600 0.000000 0.000000 0.000000 0.000000 0.000000 0.000000 0.132900 -12.500200 -2.764800 -2.486400 13.202000 15.195100 0.000000 0.000000 -9.635000 -6.672200 -22.749700 0.552100 0.000000 0.000000 0.000000 0.000000 0.000000 0.000000 -1.197300 1.634000 -7.279800 2.344700 0.000000 0.000000 -5.733100 -5.717800 -4.280700 2.588700 0.000000 0.000000 0.484800 -2.176800 27.085000 1.543700 0.000000 0.000000 -5.302800 1.338000 -1.261500 0.043200 0.000000 0.000000 
0.306357 0.202791 0.804743 1.283800 -2.884100 -94.139200 -1.244000 -0.475300 0.073000 -0.965300 -0.610200 -0.074400 -0.119300 0.188800 -0.665400 0.290700 0.004300 -0.279400 -2.172100 0.598900 0.090200 3.700900 -1.367200 -0.163000 -1.409200 10.840000 4.691000 -7.473500 -4.499500 -4.148800 0.000000 0.000000 0.028800 3.472100 25.495700 -5.586400 0.000000 0.000000 0.000000 0.000000 0.000000 0.000000 0.110700 -12.508400 -2.834400 -2.477200 13.270800 15.200000 0.000000 0.000000 -9.640600 -6.592100 -22.641000 0.564000 0.000000 0.000000 0.000000 0.000000 0.000000 0.000000 -1.193600 1.672400 -7.267400 2.320700 0.000000 0.000000 -5.701000 -5.722700 -4.269300 2.550500 0.000000 0.000000 0.475100 -2.139700 27.070500 1.551100 0.000000 0.000000 -5.311000 1.304300 -1.234200 0.015100 0.000000 0.000000 
0.306530 0.202311 0.804738 1.269300 -2.865400 -94.149100 -1.253300 -0.465200 0.074600 -0.979600 -0.612400 -0.075300 -0.081500 0.163200 -0.657900 0.302600 0.000500 -0.271000 -2.147900 0.647700 0.109500 3.716400 -1.392000 -0.189100 -1.389800 10.834800 4.695900 -7.427100 -4.610800 -4.099200 0.000000 0.000000 0.004700 3.592600 25.437500 -5.657000 0.000000 0.000000 0.000000 0.000000 0.000000 0.000000 0.074000 -12.501900 -2.911900 -2.484700 13.360400 15.205100 0.000000 0.000000 -9.646300 -6.557400 -22.289500 0.588400 0.000000 0.000000 0.000000 0.000000 0.000000 0.000000 -1.163000 1.720800 -7.202800 2.262400 0.000000 0.000000 -5.655200 -5.711600 -4.301000 2.501500 0.000000 0.000000 0.484300 -2.085000 27.051100 1.539000 0.000000 0.000000 -5.313000 1.274100 -1.198600 -0.021000 0.000000 0.000000 
0.306710 0.201846 0.804718 1.257500 -2.853200 -94.166600 -1.260000 -0.448200 0.075900 -0.990700 -0.611900 -0.076100 -0.043300 0.122100 -0.655700 0.310800 -0.007700 -0.255000 -2.153300 0.683200 0.126700 3.739600 -1.405500 -0.194000 -1.376700 10.832400 4.688100 -7.446800 -4.728000 -4.075700 0.000000 0.000000 -0.047700 3.675800 25.488300 -5.655600 0.000000 0.000000 0.000000 0.000000 0.000000 0.000000 0.042600 -12.477200 -2.937800 -2.463000 13.452000 15.175100 0.000000 0.000000 -9.631200 -6.504400 -21.804000 0.630300 0.000000 0.000000 0.000000 0.000000 0.000000 0.000000 -1.126800 1.759900 -7.089500 2.175300 0.000000 0.000000 -5.606700 -5.699200 -4.382400 2.479200 0.000000 0.000000 0.492700 -2.033100 27.028100 1.513400 0.000000 0.000000 -5.308700 1.244300 -1.157300 -0.036500 0.000000 0.000000 
0.306911 0.201440 0.804715 1.250800 -2.853100 -94.193700 -1.264700 -0.440500 0.078600 -0.997900 -0.618400 -0.076800 -0.013000 0.102300 -0.650100 0.313300 -0.012500 -0.244900 -2.188900 0.686700 0.117700 3.739800 -1.407700 -0.208600 -1.387400 10.801200 4.684500 -7.450700 -4.820700 -4.096900 0.000000 0.000000 -0.075100 3.692800 25.663700 -5.581900 0.000000 0.000000 0.000000 0.000000 0.000000 0.000000 0.026200 -12.460200 -2.918400 -2.398200 13.542600 15.127400 0.000000 0.000000 -9.591500 -6.355400 -21.397400 0.704400 0.000000 0.000000 0.000000 0.000000 0.000000 0.000000 -1.096200 1.789400 -6.983100 2.068400 0.000000 0.000000 -5.552800 -5.727400 -4.464200 2.497000 0.000000 0.000000 0.488300 -1.990500 27.005900 1.489400 0.000000 0.000000 -5.301800 1.202500 -1.115500 -0.030600 0.000000 0.000000 
0.307152 0.201046 0.804728 1.244200 -2.859400 -94.225300 -1.264100 -0.450000 0.082100 -0.999100 -0.632600 -0.076800 -0.002100 0.121200 -0.636700 0.309700 -0.006000 -0.252800 -2.235700 0.682700 0.063400 3.682200 -1.428900 -0.303200 -1.396800 10.730000 4.687500 -7.404600 -4.873700 -4.128700 0.000000 0.000000 -0.080000 3.669200 25.787400 -5.559100 0.000000 0.000000 0.000000 0.000000 0.000000 0.000000 0.012400 -12.483900 -2.907100 -2.351700 13.631000 15.132100 0.000000 0.000000 -9.548300 -6.178600 -21.118200 0.809400 0.000000 0.000000 0.000000 0.000000 0.000000 0.000000 -1.071600 1.821000 -6.926600 1.952900 0.000000 0.000000 -5.483900 -5.792100 -4.498000 2.533000 0.000000 0.000000 0.470700 -1.949400 26.982800 1.476100 0.000000 0.000000 -5.297500 1.153800 -1.071400 -0.019500 0.000000 0.000000 
0.307459 0.200645 0.804730 1.230800 -2.870300 -94.259500 -1.260200 -0.460200 0.085700 -0.993900 -0.653500 -0.077800 -0.007700 0.160900 -0.629300 0.300600 0.012600 -0.277100 -2.307100 0.709800 -0.052600 3.595400 -1.496500 -0.502600 -1.369600 10.649700 4.704900 -7.371400 -4.895500 -4.143000 0.000000 0.000000 -0.106800 3.614700 25.735300 -5.587200 0.000000 0.000000 0.000000 0.000000 0.000000 0.000000 0.006400 -12.547600 -2.906000 -2.377300 13.703000 15.208200 0.000000 0.000000 -9.520800 -6.079100 -20.887700 0.922700 0.000000 0.000000 0.000000 0.000000 0.000000 0.000000 -1.058100 1.859600 -6.900600 1.839900 0.000000 0.000000 -5.402300 -5.837900 -4.490000 2.557900 0.000000 0.000000 0.440300 -1.903500 26.962000 1.470000 0.000000 0.000000 -5.293100 1.117500 -1.025000 -0.016300 0.000000 0.000000 
0.307838 0.200243 0.804723 1.214800 -2.897200 -94.294300 -1.265400 -0.463500 0.088800 -0.993000 -0.672500 -0.079400 -0.011100 0.191900 -0.650600 0.291100 0.038300 -0.304500 -2.432200 0.782100 -0.232200 3.563800 -1.607200 -0.756700 -1.308800 10.599600 4.745500 -7.374300 -4.909400 -4.145700 0.000000 0.000000 -0.156700 3.544100 25.634200 -5.530700 0.000000 0.000000 0.000000 0.000000 0.000000 0.000000 0.044500 -12.607500 -2.869900 -2.443600 13.734500 15.289100 0.000000 0.000000 -9.509100 -6.048300 -20.727600 1.006100 0.000000 0.000000 0.000000 0.000000 0.000000 0.000000 -1.065500 1.895100 -6.840500 1.724600 0.000000 0.000000 -5.316800 -5.844900 -4.506900 2.566100 0.000000 0.000000 0.382900 -1.861700 26.953900 1.474100 0.000000 0.000000 -5.284600 1.089200 -0.987800 -0.023900 0.000000 0.000000 
0.308234 0.199834 0.804730 1.200700 -2.934100 -94.318700 -1.279600 -0.469100 0.091000 -1.001500 -0.694900 -0.081700 -0.012400 0.222000 -0.691900 0.285400 0.069300 -0.332500 -2.581700 0.875500 -0.440100 3.637000 -1.730700 -1.006500 -1.250400 10.577600 4.794800 -7.358500 -4.921300 -4.143000 0.000000 0.000000 -0.186400 3.519600 25.623300 -5.401000 0.000000 0.000000 0.000000 0.000000 0.000000 0.000000 0.127800 -12.629000 -2.802700 -2.487300 13.716800 15.320500 0.000000 0.000000 -9.508600 -6.011100 -20.783400 1.023900 0.000000 0.000000 0.000000 0.000000 0.000000 0.000000 -1.069500 1.925300 -6.728700 1.581700 0.000000 0.000000 -5.228600 -5.857800 -4.591400 2.564300 0.000000 0.000000 0.309000 -1.825300 26.963800 1.485200 0.000000 0.000000 -5.270500 1.052800 -0.978700 -0.039900 0.000000 0.000000 
0.308580 0.199413 0.804746 1.186300 -2.965900 -94.321500 -1.293700 -0.487800 0.091100 -1.011900 -0.718200 -0.084200 -0.030700 0.269000 -0.724400 0.278200 0.102000 -0.366900 -2.682900 0.943600 -0.620500 3.788500 -1.828700 -1.232900 -1.213700 10.550300 4.811200 -7.328900 -4.909500 -4.106300 0.000000 0.000000 -0.189300 3.546800 25.546900 -5.374600 0.000000 0.000000 0.000000 0.000000 0.000000 0.000000 0.188500 -12.625600 -2.770900 -2.515900 13.673400 15.333600 0.000000 0.000000 -9.535600 -5.962100 -21.106400 0.980000 0.000000 0.000000 0.000000 0.000000 0.000000 0.000000 -1.043900 1.957900 -6.613400 1.403000 0.000000 0.000000 -5.135900 -5.903100 -4.713600 2.569000 0.000000 0.000000 0.242500 -1.785800 26.980000 1.493200 0.000000 0.000000 -5.256800 1.013500 -0.997500 -0.046400 0.000000 0.000000 
0.308889 0.199037 0.804738 1.168200 -2.996800 -94.314800 -1.308400 -0.504700 0.090200 -1.016200 -0.737200 -0.085400 -0.075200 0.324800 -0.732800 0.264900 0.125400 -0.403300 -2.712100 0.949100 -0.747200 3.954400 -1.880800 -1.425000 -1.191500 10.514200 4.781100 -7.364200 -4.878900 -4.032500 0.000000 0.000000 -0.188800 3.461100 25.122300 -5.435100 0.000000 0.000000 0.000000 0.000000 0.000000 0.000000 0.170000 -12.634000 -2.808000 -2.576900 13.651400 15.372000 0.000000 0.000000 -9.611200 -5.864600 -21.449300 0.996200 0.000000 0.000000 0.000000 0.000000 0.000000 0.000000 -1.013000 1.993000 -6.545800 1.223300 0.000000 0.000000 -5.043900 -5.948800 -4.802300 2.597600 0.000000 0.000000 0.181700 -1.743600 26.994200 1.493700 0.000000 0.000000 -5.245700 0.990300 -1.022500 -0.030200 0.000000 0.000000 
0.309227 0.198791 0.804723 1.154300 -3.033700 -94.327800 -1.326600 -0.500700 0.090600 -1.014600 -0.749400 -0.085700 -0.124900 0.360800 -0.722300 0.250600 0.132300 -0.424000 -2.716300 0.896100 -0.831400 4.076600 -1.906400 -1.551600 -1.174300 10.513300 4.732500 -7.454400 -4.894300 -3.966800 0.000000 0.000000 -0.180800 3.090500 24.331700 -5.297000 0.000000 0.000000 0.000000 0.000000 0.000000 0.000000 0.111800 -12.672100 -2.876500 -2.654000 13.693200 15.406900 0.000000 0.000000 -9.712500 -5.584600 -21.380600 1.248100 0.000000 0.000000 0.000000 0.000000 0.000000 0.000000 -1.012000 2.015500 -6.514900 1.083100 0.000000 0.000000 -4.959100 -5.972800 -4.827400 2.645500 0.000000 0.000000 0.116000 -1.716700 27.022000 1.494400 0.000000 0.000000 -5.231700 0.980000 -1.041000 -0.010100 0.000000 0.000000 
0.309601 0.198674 0.804746 1.154600 -3.057800 -94.376900 -1.331900 -0.481900 0.096100 -1.010600 -0.755800 -0.084600 -0.157000 0.368100 -0.703500 0.242100 0.127200 -0.424200 -2.736700 0.825600 -0.879700 4.120500 -1.942000 -1.593000 -1.169400 10.579000 4.707100 -7.471700 -5.013200 -3.954800 0.000000 0.000000 -0.135200 2.531000 23.409100 -4.841900 0.000000 0.000000 0.000000 0.000000 0.000000 0.000000 0.091900 -12.732500 -2.937800 -2.677100 13.811800 15.400700 0.000000 0.000000 -9.779100 -5.086300 -20.750600 1.703400 0.000000 0.000000 0.000000 0.000000 0.000000 0.000000 -1.027700 2.016400 -6.470400 0.991800 0.000000 0.000000 -4.884900 -5.997300 -4.820700 2.683100 0.000000 0.000000 0.065000 -1.715000 27.071800 1.502400 0.000000 0.000000 -5.214100 0.963100 -1.048000 -0.008700 0.000000 0.000000 
0.309966 0.198608 0.804789 1.160800 -3.053200 -94.452300 -1.314800 -0.460400 0.104700 -0.994700 -0.759000 -0.082600 -0.180100 0.364300 -0.684000 0.236800 0.121800 -0.417000 -2.770300 0.771400 -0.886100 4.096500 -1.986900 -1.570400 -1.171600 10.682500 4.705000 -7.368000 -5.219900 -3.959200 0.000000 0.000000 -0.070000 2.069300 22.469600 -4.345500 0.000000 0.000000 0.000000 0.000000 0.000000 0.000000 0.113400 -12.791700 -2.993900 -2.632600 13.974900 15.391800 0.000000 0.000000 -9.798300 -4.569400 -19.981900 2.057700 0.000000 0.000000 0.000000 0.000000 0.000000 0.000000 -1.038900 2.012200 -6.393300 0.946400 0.000000 0.000000 -4.828200 -6.028500 -4.817900 2.692800 0.000000 0.000000 0.046700 -1.720400 27.113400 1.514700 0.000000 0.000000 -5.201300 0.938500 -1.024300 -0.011700 0.000000 0.000000 
0.310312 0.198570 0.804804 1.163500 -3.033800 -94.534300 -1.286800 -0.440100 0.111500 -0.969100 -0.756900 -0.081000 -0.206500 0.360600 -0.675500 0.228800 0.121000 -0.412900 -2.800000 0.743400 -0.864300 4.050900 -2.016700 -1.526200 -1.166800 10.780300 4.718100 -7.236400 -5.464500 -3.939600 0.000000 0.000000 -0.032800 1.831400 21.353800 -4.131000 0.000000 0.000000 0.000000 0.000000 0.000000 0.000000 0.109600 -12.819000 -3.051900 -2.582800 14.122700 15.444400 0.000000 0.000000 -9.838500 -4.215300 -19.556500 2.151400 0.000000 0.000000 0.000000 0.000000 0.000000 0.000000 -1.055200 2.011500 -6.306400 0.942300 0.000000 0.000000 -4.791500 -6.038600 -4.821400 2.691800 0.000000 0.000000 0.043700 -1.722500 27.121700 1.530000 0.000000 0.000000 -5.202900 0.915400 -0.959300 0.008200 0.000000 0.000000 
